<svg xmlns="http://www.w3.org/2000/svg" xmlns:xlink="http://www.w3.org/1999/xlink" width="48" height="48" viewBox="0 0 48 48">
    <defs>
        <rect id="a" width="48" height="48" rx="2"/>
    </defs>
    <g fill="none" fill-rule="evenodd">
        <mask id="b" fill="#fff">
            <use xlink:href="#a"/>
        </mask>
        <use fill="#575757" xlink:href="#a"/>
        <g fill="#940000" mask="url(#b)">
            <path d="M13.19-9.754c.784-.178 1.222-.29.623-1.087-.192-.257-.142-.76-.203-1.15L13.352-12l-.162 2.246M45.154 34.706c-.047.509-.138 1.354-.202 2.2-.092 1.238.604 2.194 1.28 3.09.932 1.238 2.31 1.959 3.806 2.114 1.225.128 2.406-.433 3.377-1.245.546-.457 1.04-.98 1.532-1.496.348-.364.643-.575 1.178-.242.182.114.795-.07.878-.262.218-.507.254-1.091.362-1.645l-.372-.179c-.415.45-.83.9-1.414 1.53-.125-.552-.243-.977-.314-1.409-.133-.803-.234-1.612-.359-2.417-.082-.531-.135-1.075-.293-1.584-.078-.248-.332-.486-.566-.633-.585-.368-1.214-.664-1.799-1.033-.101-.064-.156-.397-.084-.509.509-.783.405-1.748.69-2.511.384-1.03.135-1.668-.323-2.456-.143-.247-.052-.619-.119-.923-.164-.744.005-1.595-.778-2.148-.222-.157-.403-.547-.395-.825.033-1.25-.832-1.664-1.748-2.167-.907-.498-1.698-1.204-2.557-1.794-.232-.16-.523-.24-.794-.336-.316-.111-.687-.129-.95-.309-.656-.448-.594-.939.049-1.424.291-.22.612-.54.686-.867.067-.29-.099-.766-.33-.951-.18-.145-.708-.077-.918.095-.226.186-.305.594-.37.92-.08.391-.062.801-.136 1.194-.007.032-.507.077-.599-.033-.29-.349-.58-.744-.703-1.169-.083-.288.12-.656.188-.99.091-.446.327-.933.223-1.33-.121-.46-.46-.97-.855-1.228-.515-.334-1.172-.18-1.516.36-.294.46-.587 1.039-.572 1.556.04 1.343-.49 2.48-1.021 3.752-1.062-.52-2.092-.99-3.087-1.526-.543-.292-.567-1.087-.144-1.646.26-.343.485-.714.71-1.05-.142-.13-.162-.165-.185-.167-1.497-.15-1.493-.15-1.32-1.753.066-.618.241-1.262.137-1.853-.2-1.136-1.155-1.707-2.055-2.27-1.181-.739-2.383-1.446-3.552-2.202-.782-.507-1.052-1.335-1.166-2.203-.095-.717.398-1.503 1.153-1.576 1.192-.115 1.858-.75 2.292-1.77.064-.15.206-.268.252-.485-.206.153-.41.31-.62.459-.598.42-1.148.466-1.64-.178-.343-.447-.747-.719-1.304-.301a.533.533 0 0 1-.242.083c-1.192.16-2.381.408-3.578.448-1.114.037-2.062-.372-2.456-1.597-.086-.267-.441-.487-.72-.644-1.054-.591-1.314-1.548-.728-2.61.342-.62.543-1.318.912-1.917a7.246 7.246 0 0 1 1.279-1.552c.384-.348.533-.64.456-1.169-.072-.502.06-1.034.113-1.698-1.051 1.045-2 1.968-2.196 3.424-.093.697-.301 1.389-.54 2.054-.438 1.212-1.135 1.677-2.392 1.592-.3-.02-.647-.22-.85-.446-.093-.102.118-.469.18-.719.1-.413.192-.829.317-1.375-1.057.514-1.113.653-.826 1.472-.825.076-1.713.354-2.5.18-1.05-.233-2.025-.816-3.03-1.254-.24-.105-.522-.18-.694-.355-.424-.432-.796-.914-1.33-1.543-.347.01-.363.487-.436.931-.178 1.083-.587 1.259-1.459.62-.222.548-.415 1.106-.677 1.63-.102.204-.43.504-.537.462-.904-.355-1.659.214-2.443.404-.708.172-1.376.631-1.982 1.073C1.696-3.091.988-2.6.024-2.69c-.196-.018-.45-.053-.589.045-.871.608-1.603.348-2.253-.346l-1.417.894c.42.264.711.495 1.04.643.444.199.781.454.551.97-.567 1.27-1.17 2.524-1.768 3.78-.313.659-.695.736-1.36.332-.843-.513-1.772-.91-2.705-1.243-.393-.14-.892.014-1.343.034l-.065.342c1.182.584 2.342 1.217 3.555 1.729.616.26.751.549.596 1.169-.15.599-.14 1.237-.237 1.852-.08.5-.157 1.013-.335 1.482-.251.662-.768.81-1.467.673-.948-.184-1.915-.265-2.875-.384-.901-.112-1.51.365-2.08 1.014l.61.764c.814-.918 1.882-1.022 2.986-1.009 1.104.012 1.535.362 1.885 1.383.34.99.796 1.943 1.123 2.938.435 1.322.857 2.656 1.15 4.013.098.452-.069 1.167-.39 1.438-.268.227-.948.03-1.425-.073-.314-.069-.592-.306-.935-.495l-.261.87c.246.053.454.144.657.135 1.297-.06 1.797.219 2.075 1.468.184.827.457 1.492 1.07 2.132.932.975.378 2.899-.867 3.444-1.034.454-1.508 1.359-1.096 2.547.647-.67 1.25-1.228 1.771-1.854.523-.628.888-1.403 1.471-1.957.325-.308 1.084-.555 1.425-.386 2.088 1.039 4.372 1.939 5.806 3.819.835 1.093 1.458 1.58 2.713.991a.465.465 0 0 1 .255-.017c1.334.217 2.661.547 4.003.627 1.384.082 2.559.674 3.816 1.098.507.17 1.272.106 1.72-.172 1.24-.772 2.489-.87 3.859-.542.719.172 1.463.271 2.202.318 1.326.084 2.32.56 2.686 1.946.042.157.137.368.265.424 1.844.816 3.563 2.305 5.792 1.205.39-.192.699-.548 1.039-.836.481-.408.067-.754-.063-1.137-.062-.186-.053-.493.062-.614.103-.108.483-.13.59-.03.794.742 1.823.585 2.755.739.82.135 1.272.466 1.42 1.316.235 1.343.707 1.755 1.938 1.897 1.026.119 1.706-.615 1.492-1.637-.243-1.161-.974-1.907-2.067-2.325-.212-.08-.482-.1-.63-.245-.3-.294-.577-.63-.784-.993-.33-.576.321-.61.556-.86.94-1.01 2.224-1.366 3.49-1.705.273-.073.648.203.964.343.53.235 1.05.489 1.574.737.437.207.89.389 1.303.635.436.26.82.605 1.252.872.444.273.628.53.235 1.013-.517.636-.977 1.318-1.61 2.184M41.936 54.508c-.383.103-.758.243-1.145.3-.676.099-.87.392-.634 1.053.1.28-.023.638-.044.96-.426-.09-.912-.085-1.257-.301-.233-.146-.352-.6-.365-.921-.01-.246.227-.502.366-.777.233 0 .52.087.672-.018.346-.236.798-.527.882-.872.072-.3-.223-.892-.505-1.015-.33-.143-.937-.057-1.223.174-.845.68-.647.565-1.395-.152-.602-.576-1.644-.943-2.5-.961-1.357-.028-2.345 1.024-2.676 2.37-.081.331-.121.692-.286.98-.317.558-.501 1.04.222 1.42.061.031.121.149.112.218-.134 1.016.329 2.175-.774 2.959-.607.431-.715 1.066-.54 1.76.041.166.125.331.123.496-.03 1.75.801 2.651 2.55 3.076.816.198 1.323.233 2.055-.18.612-.344 1.449-.878 2.166.025.062.079.375.02.54-.05 1.27-.537 1.63-.42 2.207.747.475.963 1.622 1.587 2.706 1.47 1.056-.113 2.048-.946 2.258-1.949.18-.859.318-1.727.453-2.595.027-.17.025-.421-.077-.521-.596-.582-.42-1.183-.103-1.8.427-.828.788-1.705 1.322-2.46.244-.344.827-.605 1.272-.63 1.354-.073 2.333-.711 3.015-1.79.747-1.184.871-2.424.106-3.694-.89-1.475-2.272-2.007-3.865-1.796-1.08.142-1.753 1.069-2.438 1.891-.622.745-.743 1.567-.798 2.473-.021.36-.287.753-.545 1.037-.396.435-.86.817-1.338 1.165-.236.172-.565.218-.853.32-.106-.293-.345-.615-.289-.873.11-.506.384-.976.623-1.54M-16.87 53.479c-.263-1.459 1.23-2.143 1.747-3.324.132-.301.285-.606.342-.924.174-.964.308-1.936.45-2.906.02-.134.052-.35-.018-.4-1.105-.809-.76-2.244-1.469-3.24-.413-.582-.635-1.225-1.515-1.33-.325-.038-.587-.498-.903-.733-.418-.312-.833-.78-1.3-.85-1.652-.245-3.344-.617-4.983-.007-.654.243-1.202.748-1.818 1.101-2.653 1.527-3.301 3.99-3.003 6.72.1.913.533 1.871 1.058 2.777.753 1.3 2.047 1.904 2.99 2.92.162.174.449.333.678.333 1.94.002 3.892.569 5.828-.258.51-.218 1.243.064 1.917.12M11.002 47.519c.395-.673.639-1.218-.1-1.72-.114-.079-.105-.33-.154-.502.19-.017.384-.068.568-.044.712.094 1.421.213 2.131.32.115.017.24-.001.348.031.4.121.905.472 1.169.343.664-.325 1.264-.818 1.804-1.33.478-.453.243-1.228-.386-1.473-.239-.093-.505-.117-.712-.162-.197-.626-.41-1.204-.547-1.799-.05-.217.029-.5.142-.705.235-.423.58-.792.796-1.224.483-.965.277-2.332-.41-3.052-.729-.765-2.317-1.245-3.128-.946-1.011.372-1.943 1.645-1.99 2.717-.056 1.315-.16 1.387-1.428 1.083-.209-.05-.504-.078-.658.026-.862.58-1.724 1.272-1.543 2.395.158.975.576 1.929 1.778 2.2.568.129.732.516.608 1.043-.046.194-.108.386-.14.582-.192 1.182.006 1.497 1.16 1.895.214.074.412.19.692.322M-7.502 48.866c1.19.015 3.072-2.354 3.111-3.862.055-2.084-1.62-3.777-3.483-3.774-2.421.004-3.972 1.335-3.953 3.475.023 2.55 1.879 3.982 4.325 4.161M1.381 42.578c-1.305-.023-2.718.955-2.61 2.88.08 1.416 1.556 2.76 3.097 2.734 1.307-.021 2.55-1.365 2.532-2.738-.023-1.74-1.232-2.893-3.019-2.876M5.752 58.783c.03-1.373-1.144-2.187-2.073-2.274-1.057-.099-1.97.924-1.983 2.088-.013 1.145.926 2.141 2.046 2.172 1.045.03 1.991-.906 2.01-1.986M9.217 49.99c-1.558-.024-2.459 1.293-1.986 2.438A1.84 1.84 0 0 0 9.4 53.525c.497-.125 1.02-.206 1.473-.426.374-.182.838-.488.937-.831.1-.35-.067-1.004-.344-1.184-.773-.5-1.664-.823-2.248-1.094M24.705 64.796c.882.1 1.146-.23 1.313-1.64.14-1.178-.511-2.252-1.434-2.366-1.235-.15-2.181.556-2.355 1.667-.204 1.301.97 2.417 2.476 2.34M-40 46.539c-.007 1.032.798 1.745 1.835 1.524.535-.115.818-.121 1.106.462.157.318.764.613 1.117.56.282-.043.736-.693.668-.953-.103-.4-.581-.971-.914-.98-.72-.022-.844-.358-.977-.94-.188-.82-.86-1.248-1.615-1.15-.697.09-1.214.716-1.22 1.477M8.457 65.774c0-.922-.73-1.625-1.699-1.635-.924-.01-1.7.761-1.681 1.668.02.904.797 1.694 1.674 1.701.961.007 1.706-.75 1.706-1.734M-19.048 64.364c-1.341.732-1.715 1.264-1.521 2.168.159.742 1.102 1.569 1.921 1.404.418-.084.864-.691 1.045-1.16.387-.998.002-1.546-1.445-2.412M31.446 52.449c.017-.856-.818-1.505-2.004-1.56-.76-.035-1.341.55-1.375 1.383-.037.908.657 1.758 1.436 1.76 1.143.004 1.925-.634 1.943-1.583"/>
            <path d="M21.184 38.759c.959-.03 1.73-.834 1.697-1.766-.032-.872-.87-1.588-1.875-1.603-.61-.008-1.323.969-1.277 1.75.046.799.802 1.64 1.455 1.619M25.125 69.476l-.233-1.519c-.41.229-.821.453-1.228.687-1.004.574-1.06 2.772-.058 3.324.167.092.552-.03.732-.18.716-.6.84-1.42.787-2.312M-19.04 58.01c.004-.871-.632-1.52-1.476-1.507-.763.013-1.429.643-1.453 1.377-.026.803.658 1.517 1.476 1.542.835.025 1.45-.572 1.454-1.412M56.165 27.305c-1.115.59-2.15 2.443-1.923 3.347.067.27.33.683.527.695.288.017.693-.203.881-.436.863-1.07.525-2.296.515-3.606M-21.855 26.61c-.449.13-.912.227-1.344.4-1.262.504-1.263.513-1.884-.65-.037-.07-.12-.116-.186-.178-.611 1.473-.298 2.738.852 3.369.06-.09.181-.188.172-.273-.14-1.324.774-1.694 1.805-1.992.25-.072.465-.265.696-.403l-.11-.273M-17.208 16.477c1.067.098 2.133.23 3.203.271.268.011.55-.266.826-.41-.27-.25-.561-.73-.806-.712-1.091.08-2.169.302-3.251.473l.028.378M-20.617 9.868c-.68-1.171-2.516-1.599-3.38-.786.877 1.12 2.557 1.51 3.38.786M10.486 65.109c.307.223.693.704 1.174.805.623.13 1.064-.341 1.08-.936.016-.64-.427-1.036-1.106-1.062-.644-.026-1.051.315-1.148 1.193M-6.318 53.134c.599-.923.408-2.554-.395-3.37-.66.783-.422 2.812.395 3.37M.47 39.209c.307-.506.607-1.016.923-1.515.236-.373.5-.726.734-1.1.111-.177.28-.408.239-.567-.046-.177-.294-.4-.467-.412-.138-.01-.325.247-.44.42-.408.61-.843 1.21-1.166 1.864-.168.339-.123.783-.175 1.18l.352.13zM59.394 21.273c.273.338.478.82.753.863.248.04.8-.382.818-.63.043-.556-.14-1.137-.289-1.693-.024-.09-.484-.176-.507-.134-.27.485-.494.994-.775 1.594M31.897-4.842c.994.183 1.677-.49 2.48-2.441-1.012.107-2.165 1.243-2.48 2.441M27.615 70.29l1.067 1.036c.265-.354.75-.718.736-1.06-.018-.405-.47-.791-.732-1.186l-1.071 1.21M-8.221-9.448l-2.69-2.103-.22.156c0 .144-.05.39.008.417.761.344.987 1.094 1.475 1.638.218.242.81.182 1.23.26l.197-.368M36.533 5.294c-.619.391-1.255.75-1.849 1.186-.294.217-.507.774-.01.827.548.058 1.192-.174 1.674-.51.289-.202.346-.845.508-1.29-.108-.07-.215-.142-.323-.213M22.904-3.24c.291-.437.58-.876.874-1.31.514-.757 1.052-1.499 1.534-2.274.103-.167.012-.453.01-.684-.233.11-.575.158-.684.342-.636 1.073-1.222 2.176-1.814 3.275-.086.157-.113.345-.168.519l.248.131M-3.27-3.69l.684-.597C-3.123-4.816-3.605-5.33-4.14-5.79c-.15-.13-.453-.102-.686-.147.012.233-.07.538.055.687.45.537.97 1.02 1.5 1.56M4.067 35.166c.709-.436 1.1-1.047.992-1.896-.026-.2-.189-.383-.288-.575-.219.118-.581.197-.63.362-.192.655-.286 1.337-.417 2.01l.343.099M20.628 46.612c-.471-.468-.796-.844-1.185-1.113-.052-.036-.665.594-.615.7.226.481.595.887.913 1.32l.887-.907M-16.361 8.04l-.2 2.227 1.353.193-.8-2.47-.353.05M49.697-3.24c1.085-.589 2.284-1.03 2.935-2.174l-.226-.297-2.929 2.194.22.276M21.396 32.021l-.993.844c.41.257.79.602 1.244.725.173.047.518-.414.784-.644l-1.035-.925M8.457 54.79c-1.612-.327-2.193.3-1.989 1.937.67-.651 1.263-1.23 1.99-1.938M38.121-4.588l-1.265.643c.206.384.392.782.64 1.135.04.058.464-.03.509-.14.185-.455.292-.945.428-1.422l-.312-.216M-35.718 12.361c-.64-.54-1.599-.404-2.254.319.912.422 1.726.307 2.254-.319M40.495.802c.704-.604.8-1.16.431-2.246-.731.576-.891 1.337-.431 2.246M8.402 34.043c.26-.423.657-.822.729-1.278.043-.277-.417-.643-.65-.968l-.262.086-.212 1.985.395.175M27.912 42.128l1.055-1.222c-.29-.203-.695-.65-.85-.564-.537.296-.701.849-.205 1.786M-19.095 14.952l-3.325.265.02.289c1.117-.124 2.27.434 3.36-.158l-.055-.396M60.135 5.07c.534-.033 1.086-.013 1.593-.127.18-.04.25-.41.37-.628-.28-.049-.608-.196-.832-.125-.43.137-.8.4-1.196.609l.065.27zM2.372-7.23c.29.55.56 1.116.89 1.637.07.11.463.145.534.056.12-.15.205-.514.119-.637-.336-.477-.745-.895-1.126-1.334l-.417.277zM22.206 63.619l-.669-.603c-.31.4-.647.78-.903 1.214-.05.084.226.383.352.583l1.22-1.194M25.136 38.425c-.357-.28-.652-.602-.736-.56-.388.192-.717.487-1.067.745.279.215.585.626.83.597.308-.036.567-.433.973-.782M55.509 42.802c.253-.417.544-.777.5-.844-.24-.358-.565-.643-.86-.953-.173.237-.532.584-.484.69.168.368.477.653.844 1.107M-13.17 58.075c-.6.611-.537 1.17-.244 1.7.087.157.31.217.472.321.075-.192.243-.408.209-.571-.104-.495-.286-.968-.438-1.45M-24.223 38.984l2.028-1.118c-1.043-.56-1.966-.06-2.028 1.118M15.444 33.127c.55.49.698 1.147 1.474.834.2-.08.403-.567.303-.712-.42-.601-1.001-.213-1.777-.122M-12.122 65.037c.202-.926-.026-1.424-.82-1.796-.064 1.23.125 1.644.82 1.796M40.593 7.765c.284-.555.589-.889.54-1.117-.074-.34-.397-.607-.613-.905-.182.273-.507.544-.509.818-.002.311.284.625.582 1.204M-13.005 32.47l.502-1.208-.793-.588c-.519.576-.443 1.156.291 1.797M18.825 68.925c-.402-.259-.641-.53-.862-.518-.187.01-.514.373-.489.54.035.227.325.548.546.58.184.028.427-.303.805-.602M-32.788 10.913c-.67-.661-1.125-.612-2.028.233.76.26 1.414.38 2.028-.233M52.548-4.813c-.493.195-.668.648-.562 1.245.025.138.273.22.418.327l.454-1.392-.31-.18M62.19 27.53l-.768.619c.281.178.547.456.847.5.22.034.486-.24.731-.377l-.81-.743M27.721-8.182l.12-1.797c-1.086.753-1.132 1.093-.457 1.788l.337.01M-10.69.42l1.342.158c-.049-.313-.085-.89-.148-.895-.398-.025-.802.077-1.204.137l.01.6M33.598 66.61l-.123 2.021c1.083-.532 1.11-.73.504-1.977l-.38-.044M-3.263 64.332c-.356-.312-.567-.64-.782-.642-.202-.003-.56.33-.57.53-.01.2.303.55.517.59.202.036.46-.248.835-.478M-11.602-.348c-.54-.217-.84-.436-1.124-.421-.236.012-.453.3-.679.464.287.154.559.388.866.431.203.028.456-.217.937-.474M-1.937 60.77c-.209.349-.454.588-.421.744.05.232.295.405.457.604.158-.197.432-.386.441-.592.01-.202-.251-.42-.477-.756M-33.399 18.77l1.964-.22a404.5 404.5 0 0 1-.041-.454l-1.988.21.065.464M-12.868 50.888c.278-.284.63-.534.586-.618-.116-.22-.397-.494-.628-.505-.23-.011-.48.269-.72.421l.762.702M-35.042 40.332l-1.577.672c1.055.427 1.419.273 1.577-.672M46.419-4.588c.324-.468.584-.817.803-1.194.022-.04-.203-.248-.314-.378-.274.342-.559.676-.809 1.038-.027.04.14.24.32.534M-13.514 15.401l.56-1.915-.189-.106c-.217.624-.824 1.005-.695 1.846l.324.175M-10.513 35.166c.345-.177.714-.319 1.025-.547.116-.085.097-.37.14-.565-.169.008-.384-.05-.497.037-.308.238-.573.537-.855.811l.187.264M17.958 46.122c.235-.559.323-1.092-.15-1.523l-.335.063.231 1.51.254-.05M47.449 10.944c-.316-.229-.494-.437-.713-.483-.108-.023-.445.305-.412.387.082.204.288.412.503.506.088.04.33-.21.622-.41M45.165-8.631l-1.097.785.239.338 1.113-.763-.255-.36M52.858 19.324l-.418-.33c-.167.2-.348.393-.483.611-.014.023.322.306.347.287.186-.142.335-.331.554-.568M-20.405 29.326l1.366-.593-.165-.305-1.413.51.212.388zM40.236 4.251c-.546-.211-.892.01-1.122.494-.03.063.098.318.162.322.499.033.81-.238.96-.816M-16.11 11.972c-.22-.538-.548-.743-1.008-.532-.083.038-.156.424-.097.49.324.361.694.487 1.106.042M-7.77-5.153c-.322-.243-.53-.434-.772-.556-.051-.026-.233.2-.355.31.188.2.357.426.577.582.052.037.277-.164.55-.336M32.573 67.452l-.519-.618c-.137.173-.395.357-.382.515.019.213.248.407.387.608l.514-.505M62.55 26.815c-.529-.09-.862-.164-1.199-.184-.041-.003-.201.351-.14.42.337.378.722.362 1.338-.236M54.21 21.682l1.05.457c.026-.159.103-.438.068-.457-.308-.173-.636-.3-.958-.441l-.16.44M57.947 2.599l-1.258.27.07.404 1.283-.195-.095-.48M44.068 47.517l-.61-1.121-.292.198.557 1.15.345-.227M-12.278-2.342h-1.578c.547 1.178 1.068.484 1.563.333l.015-.333M51.991 14.727c.219-.35.423-.533.416-.71-.006-.141-.27-.275-.42-.413-.17.15-.456.287-.48.451-.023.156.229.339.484.672M53.116-8.856l-1.385.876.217.247 1.36-.903-.192-.22M39.662-2.342l-.102 1.075.495.048.181-1.065-.574-.058"/>
        </g>
        <g fill="#FFF" stroke="#FFF" mask="url(#b)">
            <path d="M13.56 28.843c.236-.347.44-.666.663-.969.38-.516.771-1.022 1.16-1.532a.527.527 0 0 1 .462-.216c.816.048 1.632.106 2.448.16l.011.102c-.114.066-.23.13-.343.199-.902.543-1.79 1.112-2.711 1.62-.477.263-1.014.418-1.525.62-.034.013-.076.008-.165.016m28.052.388c-.485.68-1.113 1.221-1.76 1.739-1.205.966-2.523 1.77-3.847 2.56-.272.163-.603.236-.914.325-.776.222-1.403-.517-1.154-1.288.16-.495.465-.896.807-1.277.66-.735 1.464-1.279 2.303-1.786.616-.373 1.22-.772 1.708-1.314.32-.355.408-.746.239-1.209-.341-.932-.875-1.75-1.479-2.526-.439-.564-1.057-.604-1.699-.53-1.108.129-2.11.581-3.106 1.043-1.496.693-2.975 1.424-4.481 2.095-.84.374-1.717.663-2.58.98-1.514.556-2.886 1.369-4.228 2.246a38.752 38.752 0 0 1-2.506 1.512c-1.615.889-3.34 1.092-5.151.763-.855-.155-1.725-.276-2.592-.307-1.518-.054-2.635.63-3.327 1.986-.176.345-.369.682-.573 1.01a1.341 1.341 0 0 1-.333.35c-.376.282-.794.147-.948-.297a1.545 1.545 0 0 1-.08-.348c-.025-.245-.034-.492-.05-.738.062-.842.212-1.658.535-2.445.464-1.128 1.319-1.666 2.514-1.724.694-.034 1.389-.052 2.083-.089.126-.007.248-.076.375-.106.08-.02.166-.03.249-.028.802.013 1.601.014 2.39-.172.97-.229 1.791-.754 2.63-1.254a52.203 52.203 0 0 1 2.658-1.501c.429-.223.914-.338 1.375-.498.12-.041.261-.059.265-.225.004-.17-.106-.255-.256-.291-.295-.072-.59-.147-.89-.205a25.194 25.194 0 0 0-3.284-.412c-.043-.002-.086-.002-.128-.008-.826-.106-1.494.147-1.965.851-.69 1.032-1.382 2.061-2.066 3.096-.065.098-.114.154-.241.15-.418-.016-.84.008-1.255-.034-.284-.03-.56-.138-.838-.22-1.101-.325-2.198-.667-3.188-1.264a3.738 3.738 0 0 1-.702-.57c-.205-.204-.186-.42-.002-.643.265-.32.61-.463 1.019-.404.65.094 1.3.197 1.947.32 1.214.233 2.164-.21 2.892-1.142.468-.6.864-1.255 1.303-1.877.183-.259.383-.507.593-.744.55-.62 1.249-.986 2.071-1.046a37.949 37.949 0 0 1 2.635-.077c1.04-.003 2.038.248 3.014.579.978.331 1.952.349 2.946.073 1.016-.282 2.046-.517 3.058-.812.64-.186 1.252-.453 1.788-.865.684-.527.735-1.223.142-1.854-.485-.517-1.094-.868-1.659-1.28a7.828 7.828 0 0 1-1-.844c-.404-.413-.381-.774.021-1.18.522-.528 1.187-.787 1.892-.947.677-.153 1.366-.254 2.039-.422.358-.09.695-.269 1.038-.414.28-.118.568-.222.83-.372.573-.331 1.19-.497 1.843-.432.305.03.615.157.892.299.27.139.324.366.223.653-.136.388-.388.707-.748.888-.554.278-1.136.5-1.707.744-.449.192-.905.367-1.345.575-.31.147-.33.27-.157.574.298.525.757.89 1.249 1.215.767.507 1.542 1.003 2.322 1.489.077.048.246.036.323-.017a8.33 8.33 0 0 0 .92-.715c1.049-.98 2.268-1.092 3.561-.662.576.19 1.012.617 1.252 1.193.2.48.004.88-.302 1.242-.435.514-1.012.832-1.603 1.129a3.013 3.013 0 0 1-.408.175c-.238.078-.31.213-.17.428.326.502.657 1.002 1.01 1.486.674.923 1.393 1.819 1.886 2.857.176.37.31.774.382 1.177.108.605-.156 1.13-.5 1.613m1.343-1.928c-.122-.717-.438-1.358-.828-1.953-.565-.86-1.178-1.689-1.771-2.53-.14-.2-.283-.397-.43-.604l.25-.138c.543-.296 1.052-.636 1.468-1.102.797-.891.827-1.987.07-2.875a3.419 3.419 0 0 0-2.324-1.224c-.983-.102-1.935-.003-2.782.54-.384.247-.719.57-1.071.864-.09.074-.152.087-.258.019-.421-.273-.859-.521-1.277-.798-.428-.282-.84-.586-1.304-.913.147-.06.223-.095.3-.124.629-.24 1.268-.454 1.882-.725.707-.312 1.265-.802 1.561-1.538.255-.634.094-1.275-.425-1.672-.405-.31-.874-.458-1.376-.512-.835-.089-1.6.155-2.333.514-.742.364-1.467.76-2.305.88-.462.066-.921.16-1.377.261-.798.177-1.535.49-2.174 1.012-.89.728-1 1.72-.22 2.559.36.388.81.699 1.23 1.031.459.364.946.692 1.391 1.072.302.257.29.43-.052.626-.451.26-.919.518-1.412.67-.987.306-2.002.517-2.994.807-.945.276-1.853.207-2.773-.113-.858-.298-1.744-.516-2.66-.523a64.798 64.798 0 0 0-2.995.049c-.715.027-1.371.267-1.967.664-.725.482-1.213 1.172-1.695 1.871-.412.597-.817 1.204-1.285 1.756-.438.516-1.05.665-1.72.546-.635-.111-1.269-.232-1.906-.326-.724-.106-1.363.075-1.875.622-.517.553-.563 1.262-.065 1.832.242.277.54.522.856.713.489.294 1.013.53 1.54.799-.05.019-.095.037-.14.052-.834.273-1.45.803-1.875 1.563-.481.859-.693 1.793-.794 2.76-.06.577-.068 1.154.082 1.721.312 1.18 1.567 1.557 2.476.744.413-.37.672-.85.917-1.335.208-.411.431-.807.784-1.119.62-.546 1.367-.67 2.149-.596.83.079 1.66.194 2.483.33a8.256 8.256 0 0 0 5.05-.72 21.463 21.463 0 0 0 2.902-1.712c1.595-1.103 3.315-1.946 5.146-2.58a35.508 35.508 0 0 0 4.237-1.8 69.823 69.823 0 0 1 3.198-1.475 4.571 4.571 0 0 1 1.814-.405c.24-.001.442.067.592.267.493.657.935 1.341 1.256 2.1.108.256.07.45-.144.608-.48.36-.957.725-1.452 1.064-.606.413-1.266.746-1.794 1.273-.516.515-1.05 1.01-1.394 1.666-.254.484-.403.987-.293 1.545.134.68.64 1.297 1.459 1.441.535.095 1.07-.028 1.548-.272.54-.275 1.058-.596 1.574-.916 1.023-.633 2.04-1.276 2.96-2.056.795-.673 1.571-1.361 2.066-2.302.313-.596.412-1.22.299-1.883"/>
        </g>
    </g>
</svg>
