<svg xmlns="http://www.w3.org/2000/svg" width="48" height="48" viewBox="0 0 48 48">
    <g fill="none" fill-rule="evenodd">
        <rect width="48" height="48" fill="#FFE100" rx="2"/>
        <g transform="translate(9 3)">
            <path stroke="#000" stroke-width="2" d="M3 25a2 2 0 0 1-2-2v-3a2 2 0 0 1 2-2M27 25a2 2 0 0 0 2-2v-3a2 2 0 0 0-2-2"/>
            <rect width="22" height="31" x="4" y="5" stroke="#000" stroke-width="2" rx="11"/>
            <circle cx="10.5" cy="19.5" r="1.5" fill="#000"/>
            <circle cx="19.5" cy="19.5" r="1.5" fill="#000"/>
            <path stroke="#000" stroke-linecap="round" stroke-width="2" d="M11 28c1.395.667 2.757 1 4.085 1 1.327 0 2.633-.333 3.915-1"/>
        </g>
    </g>
</svg>
