<svg xmlns="http://www.w3.org/2000/svg" width="235" height="97" viewBox="0 0 235 97">
    <g fill="#FFF" fill-rule="evenodd">
        <path d="M46.607 45.707c-1.875.43-3.74.83-5.595 1.201-1.856.371-3.74.713-5.655 1.026-2.343-3.555-4.658-7.06-6.943-10.518a337.136 337.136 0 0 0-7.12-10.342l-6.269 6.094-.586 13.008a125.643 125.643 0 0 0-5.273-.117c-.82 0-1.621.02-2.402.058-.782.04-1.563.117-2.344.235A701.213 701.213 0 0 1 3.102 35.6c-.41-3.575-.772-7.178-1.084-10.81a292.838 292.838 0 0 1-.733-10.87C1.11 10.307.943 6.684.787 3.05c2.93.079 5.83.128 8.701.147 2.871.02 5.772.069 8.701.147l-.351 13.594a118.13 118.13 0 0 0 5.976-6.68 686.205 686.205 0 0 1 5.801-6.914c1.875-.117 3.77-.244 5.684-.381a481.75 481.75 0 0 0 5.683-.44l-.234 4.336-12.422 12.95a608.26 608.26 0 0 0 8.994 13.007c3.028 4.258 6.123 8.555 9.287 12.891zM57.154 6.801c0 .781-.166 1.513-.498 2.197a5.755 5.755 0 0 1-1.347 1.787 6.683 6.683 0 0 1-1.905 1.201 5.447 5.447 0 0 1-2.11.44 4.736 4.736 0 0 1-2.196-.528 6.428 6.428 0 0 1-1.787-1.347 5.767 5.767 0 0 1-1.172-1.905 6.165 6.165 0 0 1-.41-2.197c0-.742.146-1.435.439-2.08A5.367 5.367 0 0 1 47.34 2.7a5.57 5.57 0 0 1 1.7-1.113 5.27 5.27 0 0 1 2.08-.41c.741 0 1.474.146 2.196.44a6.27 6.27 0 0 1 1.934 1.23 6.57 6.57 0 0 1 1.377 1.816c.352.684.527 1.397.527 2.139zm2.403 9.96c-.196 2.071-.352 4.122-.47 6.153l-.35 6.094a77.91 77.91 0 0 1-.792 7.09 176.957 176.957 0 0 1-1.26 7.03l-8.964.938c0-1.25.01-2.48.029-3.691.02-1.21.03-2.441.03-3.691 0-3.204-.06-6.407-.176-9.61l-.352-9.61c2.07-.077 4.111-.194 6.123-.35 2.012-.157 4.072-.274 6.182-.352zM78.658.942c-.312 3.79-.615 7.559-.908 11.309-.293 3.75-.537 7.52-.732 11.309-.196 3.437-.4 6.845-.616 10.224-.215 3.38-.42 6.787-.615 10.225l-8.965.469c0-3.555.01-7.08.03-10.577.02-3.496-.01-7.021-.088-10.576-.078-3.554-.235-7.08-.47-10.576-.233-3.496-.468-7.021-.702-10.576L78.658.942zm17.871 0c-.312 3.79-.615 7.559-.908 11.309-.293 3.75-.537 7.52-.732 11.309-.196 3.437-.4 6.845-.616 10.224-.214 3.38-.42 6.787-.615 10.225l-8.965.469c0-3.555.01-7.08.03-10.577.02-3.496-.01-7.021-.088-10.576-.078-3.554-.235-7.08-.469-10.576-.234-3.496-.469-7.021-.703-10.576L96.529.942zm45.235 23.32c-5.118.274-10.215.499-15.293.675-5.078.175-10.176.36-15.293.556-.04.156-.059.313-.059.469v.469c0 1.328.303 2.343.908 3.047a4.94 4.94 0 0 0 2.256 1.494c.899.293 1.895.459 2.988.498 1.094.039 2.11.058 3.047.058 2.618 0 5.235-.088 7.852-.263 2.617-.176 5.254-.362 7.91-.557l.469 9.316c-2.578.118-5.147.215-7.705.293-2.559.079-5.127.118-7.705.118-.547 0-1.553-.01-3.018-.03-1.465-.02-3.027-.078-4.687-.175a95.83 95.83 0 0 1-4.659-.381c-1.445-.157-2.402-.371-2.87-.645-1.212-.703-2.159-1.601-2.843-2.695a14.027 14.027 0 0 1-1.582-3.574 22.462 22.462 0 0 1-.761-3.955 55.962 55.962 0 0 1-.264-3.897c-.039-.195-.049-.4-.03-.615.02-.215.03-.42.03-.615 0-2.07.225-3.995.674-5.772.45-1.777 1.28-3.506 2.49-5.185.82-1.172 2.031-2.149 3.633-2.93a25.3 25.3 0 0 1 5.215-1.846c1.875-.45 3.75-.762 5.625-.937 1.875-.176 3.496-.264 4.863-.264 1.211 0 2.695.107 4.453.322 1.758.215 3.506.576 5.244 1.084 1.739.508 3.31 1.162 4.717 1.963 1.406.8 2.363 1.787 2.871 2.96.078.233.166.634.264 1.2.098.567.205 1.211.322 1.934.117.723.225 1.494.322 2.314.098.82.186 1.602.264 2.344.078.742.147 1.406.205 1.992.059.586.108.996.147 1.23zm-7.97-4.277c-.233-1.718-.673-3.076-1.317-4.072-.645-.996-1.446-1.738-2.403-2.226-.957-.489-2.05-.801-3.281-.938a35.89 35.89 0 0 0-3.955-.205c-.469 0-1.055.01-1.758.03-.703.019-1.406.077-2.11.175-.702.098-1.366.244-1.991.44-.625.195-1.114.468-1.465.82-.274.234-.498.556-.674.967-.176.41-.322.85-.44 1.318-.117.469-.205.928-.263 1.377-.059.45-.088.83-.088 1.142 0 .626.058 1.231.176 1.817l19.57-.645zm46.407 1.29v1.347l-11.308.527a7.867 7.867 0 0 0 .175-1.757c0-.977-.136-1.612-.41-1.905-.273-.293-.879-.44-1.816-.44-1.328 0-2.793.235-4.395.704a79.744 79.744 0 0 0-4.218 1.348 114.86 114.86 0 0 0-.47 5.156 75.778 75.778 0 0 0-.175 5.156 554.194 554.194 0 0 0 .117 11.426l-10.078.644c-.195-2.5-.39-4.99-.586-7.47-.195-2.48-.371-4.97-.527-7.47-.196-3.321-.45-6.632-.762-9.933-.312-3.3-.625-6.63-.937-9.99 2.226.156 4.443.381 6.65.674 2.207.293 4.424.654 6.65 1.084l-.293 4.922a38.654 38.654 0 0 1 3.37-2.432 22.047 22.047 0 0 1 3.28-1.728 16.153 16.153 0 0 1 3.546-1.026c1.25-.215 2.636-.322 4.16-.322 1.015 0 2.07.107 3.164.322a5.348 5.348 0 0 1 2.812 1.494c.391.43.723 1.075.996 1.934.274.86.489 1.768.645 2.725.156.957.264 1.894.322 2.812.059.918.088 1.65.088 2.197zM77.814 96.938c-4.726-.079-9.56-.196-14.501-.352A173.99 173.99 0 0 1 48.81 95.53a33.22 33.22 0 0 0-1.846-.205 7.347 7.347 0 0 1-1.846-.38c-1.133-.43-2.021-.909-2.666-1.436a5.723 5.723 0 0 1-1.494-1.817 8.279 8.279 0 0 1-.762-2.285 39.52 39.52 0 0 1-.41-2.842 144.964 144.964 0 0 1-.82-8.232 117.16 117.16 0 0 1-.293-8.291c0-.508.01-1.123.03-1.846.019-.722.058-1.474.116-2.256a24.87 24.87 0 0 1 .264-2.226c.117-.703.273-1.29.469-1.758.937-2.031 2.314-3.662 4.13-4.893a22.725 22.725 0 0 1 6.006-2.87 32.72 32.72 0 0 1 6.768-1.348 70.098 70.098 0 0 1 6.416-.323c4.18 0 8.36.41 12.54 1.23l.468 12.54a41.058 41.058 0 0 0-12.363-1.875c-.782 0-1.817.039-3.106.117-1.289.078-2.607.225-3.955.44a21.826 21.826 0 0 0-3.78.937c-1.171.41-1.991.967-2.46 1.67-.235.352-.44.84-.615 1.465-.176.625-.313 1.28-.41 1.963a24.441 24.441 0 0 0-.206 2.021c-.039.664-.058 1.211-.058 1.64 0 .9.068 1.964.205 3.194.137 1.23.303 2.49.498 3.78.195 1.289.43 2.52.703 3.69.273 1.173.566 2.13.879 2.872h10.371l-.527-11.309c2.695.196 5.4.284 8.115.264 2.715-.02 5.42-.03 8.115-.03.274 3.321.43 6.622.469 9.903.039 3.281.058 6.582.058 9.903zm48.165-27.364c0 3.281-.118 6.543-.352 9.785l-.703 9.727c-4.375.39-8.73.723-13.067.996-4.336.273-8.691.41-13.066.41-.39 0-1.113-.01-2.168-.03-1.055-.019-2.168-.058-3.34-.116a79.17 79.17 0 0 1-3.34-.235c-1.054-.097-1.757-.244-2.109-.44-1.29-.702-2.188-1.59-2.695-2.665-.508-1.074-.762-2.295-.762-3.662 0-.469.02-1.094.059-1.875.039-.782.117-1.602.234-2.461.117-.86.273-1.66.469-2.403.195-.742.43-1.289.703-1.64.351-.469 1.152-.87 2.402-1.201 1.25-.332 2.744-.596 4.483-.791 1.738-.196 3.613-.352 5.625-.47 2.011-.116 3.935-.204 5.771-.263 1.836-.058 3.477-.088 4.922-.088h3.105c.118-.859.176-1.699.176-2.52v-.614c0-.332-.02-.538-.058-.616-.118-.234-.489-.43-1.114-.586-.625-.156-1.396-.273-2.314-.351a98.94 98.94 0 0 0-2.988-.205 57.582 57.582 0 0 0-3.135-.088h-4.395c-2.46 0-4.922.049-7.383.146-2.46.098-4.921.186-7.382.264.156-1.484.283-2.988.38-4.512a38.69 38.69 0 0 0 .03-4.511 85.188 85.188 0 0 1 8.584-1.084c2.87-.215 5.771-.323 8.701-.323 1.055 0 2.207.01 3.457.03 1.25.02 2.5.058 3.75.117 1.25.058 2.49.146 3.72.264 1.231.117 2.374.273 3.428.468 1.094.196 2.178.547 3.252 1.055a15.562 15.562 0 0 1 3.018 1.875 13.224 13.224 0 0 1 2.46 2.549 9.64 9.64 0 0 1 1.524 3.076c.04.117.069.312.088.586.02.273.03.576.03.908v1.494zm-13.067 13.77v-7.5a197.31 197.31 0 0 0-6.797-.117c-.234 0-.888.01-1.963.029-1.074.02-2.226.068-3.457.146-1.23.078-2.353.176-3.369.293-1.015.118-1.601.293-1.758.528a2.702 2.702 0 0 0-.38.966 5.89 5.89 0 0 0-.088 1.026c0 .273.02.644.058 1.113.04.469.108.957.205 1.465.098.508.205.977.323 1.406.117.43.273.742.468.938.157.195.42.342.791.44.371.097.772.175 1.201.234.43.058.86.097 1.29.117.43.02.761.029.996.029.937 0 1.943-.039 3.017-.117 1.074-.078 2.168-.166 3.281-.264a79.01 79.01 0 0 0 3.252-.351l2.93-.381zm74.707-2.168c0 1.64-.03 3.252-.088 4.834a79.46 79.46 0 0 1-.322 4.775c-1.64.078-3.213.166-4.717.264a38.619 38.619 0 0 0-4.717.615c.47-2.812.704-5.644.704-8.496 0-.508-.04-1.377-.118-2.607-.078-1.23-.185-2.52-.322-3.868a43.737 43.737 0 0 0-.527-3.72c-.215-1.133-.46-1.875-.733-2.227-.195-.234-.488-.41-.879-.527-.39-.117-.8-.205-1.23-.264-.43-.059-.86-.098-1.29-.117-.429-.02-.78-.03-1.054-.03-.469 0-1.025.02-1.67.06-.644.038-1.299.107-1.963.204a11.77 11.77 0 0 0-1.904.44c-.605.195-1.103.43-1.494.703-.195.156-.361.566-.498 1.23a20.62 20.62 0 0 0-.322 2.403c-.079.937-.147 1.953-.205 3.047-.06 1.093-.108 2.119-.147 3.076-.039.957-.059 1.797-.059 2.52v1.376c0 2.578.059 5.156.176 7.735-1.133.039-2.236.078-3.31.117-1.075.039-2.178.058-3.31.058h-.47c-.195 0-.39-.02-.586-.058a4.27 4.27 0 0 1-.703-.059v-4.277c0-1.211-.02-2.461-.058-3.75a356.17 356.17 0 0 0-.117-3.399c-.04-.664-.098-1.523-.176-2.578a16.08 16.08 0 0 0-.528-3.076c-.273-.996-.673-1.855-1.2-2.578-.528-.723-1.26-1.084-2.198-1.084-.43 0-1.006.068-1.729.205-.722.137-1.464.313-2.226.527a14.81 14.81 0 0 0-2.11.762c-.644.293-1.103.596-1.376.908-.079.078-.166.518-.264 1.319-.098.8-.186 1.777-.264 2.93a813.082 813.082 0 0 1-.263 3.75 169.836 169.836 0 0 0-.235 3.779 156.672 156.672 0 0 1-.176 3.017 35.89 35.89 0 0 0-.087 1.494c-.782.079-1.573.147-2.374.205-.8.059-1.591.088-2.373.088-.742 0-1.484-.02-2.226-.058a37.468 37.468 0 0 1-2.168-.176 396.951 396.951 0 0 0-.85-14.707c-.37-4.844-.771-9.746-1.2-14.707 1.093-.117 2.177-.225 3.251-.322a35.901 35.901 0 0 1 3.252-.147c1.055 0 2.11.02 3.164.059l3.223.117L143.79 66c1.797-1.445 3.525-2.52 5.186-3.223 1.66-.703 3.642-1.054 5.947-1.054.898 0 1.69.107 2.373.322a7.51 7.51 0 0 1 1.875.879c.566.37 1.123.81 1.67 1.318.547.508 1.133 1.055 1.758 1.64.703-1.093 1.513-1.962 2.431-2.607a11.395 11.395 0 0 1 2.96-1.494 14.27 14.27 0 0 1 3.34-.674 42.315 42.315 0 0 1 3.515-.146c.937 0 1.924.03 2.959.088 1.035.058 2.03.224 2.988.498a8.657 8.657 0 0 1 2.607 1.23c.782.547 1.387 1.29 1.817 2.227a20.104 20.104 0 0 1 1.23 3.75c.313 1.367.557 2.773.733 4.219.175 1.445.293 2.87.351 4.277.059 1.406.088 2.715.088 3.926zm46.465-6.914c-5.117.273-10.215.498-15.293.674-5.078.175-10.176.36-15.293.556-.039.156-.059.313-.059.469v.469c0 1.328.303 2.343.909 3.047a4.94 4.94 0 0 0 2.256 1.494c.898.293 1.894.459 2.988.498 1.094.039 2.11.058 3.047.058 2.617 0 5.234-.088 7.851-.263 2.617-.176 5.254-.362 7.91-.557l.47 9.316c-2.579.118-5.147.215-7.706.293-2.559.079-5.127.118-7.705.118-.547 0-1.553-.01-3.018-.03-1.464-.02-3.027-.078-4.687-.175a95.83 95.83 0 0 1-4.658-.381c-1.446-.157-2.403-.371-2.871-.645-1.211-.703-2.159-1.601-2.842-2.695a14.027 14.027 0 0 1-1.582-3.574 22.462 22.462 0 0 1-.762-3.955 55.961 55.961 0 0 1-.264-3.897c-.039-.195-.048-.4-.029-.615.02-.215.03-.42.03-.615 0-2.07.224-3.995.673-5.772.45-1.777 1.28-3.506 2.49-5.185.82-1.172 2.032-2.149 3.633-2.93a25.3 25.3 0 0 1 5.215-1.846c1.875-.45 3.75-.762 5.625-.937 1.875-.176 3.496-.264 4.863-.264 1.211 0 2.696.107 4.454.322 1.757.215 3.505.576 5.244 1.084 1.738.508 3.31 1.162 4.716 1.963 1.407.8 2.364 1.787 2.872 2.96.078.233.166.634.263 1.2.098.567.205 1.211.322 1.934.118.723.225 1.494.323 2.314.097.82.185 1.602.263 2.344.079.742.147 1.406.206 1.992.058.586.107.996.146 1.23zm-7.969-4.278c-.234-1.718-.674-3.076-1.318-4.072-.645-.996-1.445-1.738-2.402-2.226-.958-.489-2.051-.801-3.282-.938a35.89 35.89 0 0 0-3.955-.205c-.469 0-1.054.01-1.758.03-.703.019-1.406.077-2.109.175-.703.098-1.367.244-1.992.44-.625.195-1.113.468-1.465.82-.273.234-.498.556-.674.967-.176.41-.322.85-.44 1.318-.116.469-.204.928-.263 1.377-.059.45-.088.83-.088 1.142 0 .626.059 1.231.176 1.817l19.57-.645z"/>
    </g>
</svg>
