<?xml version="1.0" encoding="iso-8859-1"?>
<!-- Generator: Adobe Illustrator 18.0.0, SVG Export Plug-In . SVG Version: 6.00 Build 0)  -->
<!DOCTYPE svg PUBLIC "-//W3C//DTD SVG 1.1//EN" "http://www.w3.org/Graphics/SVG/1.1/DTD/svg11.dtd">
<svg xmlns="http://www.w3.org/2000/svg" xmlns:xlink="http://www.w3.org/1999/xlink" version="1.1" id="Capa_1" x="0px" y="0px" viewBox="0 0 488.594 488.594" style="enable-background:new 0 0 488.594 488.594;" xml:space="preserve" width="512px" height="512px">
<g>
	<path d="M407.774,282.906H273.887v34.007h131.611v137.674H273.887v5.181c0,10.386-2.641,20.084-6.94,28.826   h140.827c17.502,0,31.732-14.239,31.732-31.732V314.638C439.507,297.144,425.276,282.906,407.774,282.906z" fill="#ffe100"/>
	<path d="M208.148,155.735H65.924c-17.501,0-31.731,14.239-31.731,31.732v269.394   c0,17.494,14.23,31.732,31.731,31.732h142.225c17.502,0,31.732-14.239,31.732-31.732V187.468   C239.88,169.974,225.65,155.735,208.148,155.735z M137.028,471.591c-8.551,0-15.477-6.95-15.477-15.501   c0-8.56,6.926-15.492,15.477-15.492c8.568,0,15.51,6.932,15.51,15.492C152.538,464.641,145.596,471.591,137.028,471.591z    M205.873,427.612H68.199v-237.87h137.674V427.612z" fill="#ffe100"/>
	<path d="M369.882,27.768V3.583c0-1.454-0.879-2.756-2.224-3.312c-1.33-0.549-2.874-0.25-3.902,0.781   l-42.692,42.708c-1.412,1.394-1.412,3.669,0,5.063l42.692,42.702c1.028,1.029,2.572,1.336,3.902,0.78   c1.345-0.549,2.224-1.86,2.224-3.314V66.898c35.236,3.297,64.826,25.955,77.645,57.445c0.631,1.561,2.259,2.458,3.92,2.159   c1.659-0.299,2.856-1.71,2.923-3.396c0.016-0.838,0.032-1.678,0.032-2.532C454.402,72.021,417.273,32.168,369.882,27.768z" fill="#ffe100"/>
	<path d="M365.034,190.964v24.186c0,1.452,0.879,2.756,2.225,3.313c1.328,0.547,2.873,0.248,3.902-0.78   l42.692-42.708c1.411-1.396,1.411-3.669,0-5.065l-42.692-42.699c-1.029-1.031-2.574-1.336-3.902-0.781   c-1.346,0.556-2.225,1.86-2.225,3.313v22.093c-35.236-3.295-64.826-25.953-77.646-57.445c-0.633-1.552-2.26-2.457-3.919-2.158   c-1.662,0.298-2.857,1.717-2.924,3.396c-0.017,0.838-0.031,1.685-0.031,2.532C280.514,146.711,317.643,186.563,365.034,190.964z" fill="#ffe100"/>
</g>
<g>
</g>
<g>
</g>
<g>
</g>
<g>
</g>
<g>
</g>
<g>
</g>
<g>
</g>
<g>
</g>
<g>
</g>
<g>
</g>
<g>
</g>
<g>
</g>
<g>
</g>
<g>
</g>
<g>
</g>
</svg>
