<svg xmlns="http://www.w3.org/2000/svg" width="299" height="204" viewBox="0 0 299 204">
    <g fill="#940000" fill-rule="evenodd">
        <path d="M78 194c3.475.793 5.418 1.288 2.763 4.84-.854 1.142-.63 3.38-.9 5.116l-1.146.044L78 194M219.819-3.95c-.21-2.269-.613-6.03-.895-9.8-.411-5.51 2.679-9.768 5.676-13.759 4.14-5.51 10.253-8.718 16.888-9.41 5.436-.568 10.676 1.93 14.983 5.545 2.422 2.035 4.612 4.36 6.798 6.658 1.546 1.624 2.854 2.564 5.226 1.079.808-.507 3.528.316 3.895 1.169.97 2.254 1.13 4.857 1.61 7.322l-1.651.796-6.276-6.81c-.554 2.458-1.076 4.348-1.393 6.271-.59 3.577-1.038 7.178-1.59 10.762-.364 2.367-.6 4.785-1.304 7.053-.343 1.106-1.47 2.164-2.51 2.82-2.594 1.638-5.388 2.957-7.98 4.597-.45.285-.696 1.767-.374 2.266 2.257 3.49 1.798 7.786 3.06 11.181 1.703 4.588.599 7.425-1.431 10.933-.636 1.1-.232 2.757-.527 4.11-.727 3.315.019 7.105-3.453 9.567-.987.7-1.788 2.434-1.754 3.67.149 5.567-3.69 7.41-7.756 9.65-4.024 2.216-7.533 5.36-11.343 7.987-1.031.711-2.321 1.073-3.526 1.497-1.399.493-3.045.572-4.213 1.373-2.91 1.996-2.636 4.182.216 6.34 1.293.98 2.716 2.404 3.047 3.861.295 1.297-.44 3.414-1.466 4.237-.8.642-3.142.34-4.073-.426-1.005-.825-1.354-2.642-1.646-4.094-.35-1.741-.269-3.568-.601-5.315-.028-.143-2.25-.343-2.654.146-1.286 1.553-2.576 3.31-3.12 5.204-.369 1.283.531 2.922.834 4.408.404 1.986 1.451 4.154.989 5.917-.538 2.053-2.04 4.325-3.796 5.47-2.285 1.491-5.198.807-6.726-1.599-1.303-2.051-2.602-4.626-2.535-6.929.176-5.98-2.171-11.047-4.532-16.705-4.71 2.315-9.282 4.408-13.697 6.792-2.408 1.3-2.516 4.843-.638 7.328 1.157 1.53 2.154 3.183 3.152 4.676-.634.583-.72.735-.822.745-6.642.666-6.625.663-5.86 7.805.294 2.752 1.072 5.617.61 8.251-.89 5.057-5.126 7.599-9.119 10.106-5.238 3.29-10.57 6.436-15.756 9.805-3.471 2.254-4.668 5.944-5.177 9.806-.421 3.196 1.768 6.693 5.116 7.018 5.29.513 8.245 3.336 10.17 7.884.283.669.914 1.19 1.12 2.157-.916-.682-1.82-1.383-2.754-2.043-2.65-1.875-5.093-2.078-7.277.79-1.517 1.994-3.31 3.202-5.784 1.342-.29-.219-.704-.32-1.074-.37-5.288-.714-10.565-1.817-15.872-1.994-4.946-.165-9.15 1.656-10.9 7.11-.382 1.187-1.957 2.17-3.195 2.867-4.677 2.631-5.828 6.894-3.227 11.623 1.514 2.755 2.407 5.868 4.044 8.533 1.551 2.524 3.487 4.92 5.674 6.91 1.705 1.551 2.364 2.851 2.026 5.205-.322 2.237.26 4.604.498 7.562-4.663-4.655-8.875-8.763-9.742-15.246-.414-3.103-1.337-6.185-2.4-9.144-1.938-5.4-5.03-7.467-10.608-7.092-1.334.09-2.87.98-3.773 1.986-.41.457.527 2.09.798 3.202.448 1.84.852 3.692 1.408 6.122-4.69-2.287-4.94-2.906-3.667-6.553-3.659-.336-7.597-1.578-11.086-.8-4.666 1.037-8.989 3.633-13.45 5.582-1.061.465-2.312.799-3.078 1.582-1.88 1.921-3.529 4.069-5.9 6.87-1.54-.047-1.611-2.171-1.935-4.149-.79-4.82-2.606-5.602-6.472-2.755-.985-2.441-1.842-4.928-3.005-7.262-.452-.905-1.906-2.244-2.38-2.058-4.013 1.585-7.362-.95-10.842-1.798-3.142-.765-6.105-2.808-8.791-4.774-3.25-2.379-6.392-4.57-10.668-4.17-.872.083-1.995.237-2.614-.197-3.865-2.711-7.11-1.55-9.999 1.538l-6.285-3.98c1.863-1.176 3.156-2.204 4.614-2.862 1.97-.887 3.468-2.023 2.447-4.317-2.517-5.656-5.194-11.24-7.845-16.833-1.388-2.932-3.085-3.279-6.032-1.48-3.745 2.286-7.865 4.057-12.006 5.537-1.744.624-3.956-.063-5.956-.154l-.29-1.523c5.243-2.596 10.393-5.417 15.772-7.696 2.734-1.157 3.335-2.444 2.645-5.203-.667-2.669-.622-5.508-1.052-8.247-.35-2.226-.695-4.51-1.486-6.6-1.115-2.946-3.408-3.602-6.51-2.996-4.203.82-8.497 1.18-12.755 1.71-3.997.499-6.695-1.624-9.231-4.516l2.713-3.398c3.61 4.084 8.346 4.546 13.247 4.49 4.895-.055 6.81-1.612 8.36-6.156 1.507-4.413 3.534-8.652 4.985-13.082 1.93-5.887 3.803-11.824 5.106-17.868.432-2.011-.31-5.198-1.732-6.403-1.191-1.01-4.209-.136-6.325.327-1.394.305-2.625 1.36-4.149 2.202l-1.158-3.872c1.092-.238 2.013-.643 2.914-.602 5.754.267 7.976-.974 9.207-6.535.817-3.684 2.027-6.646 4.745-9.496C5.05 39.993 2.59 31.427-2.93 29c-4.591-2.02-6.69-6.05-4.865-11.342 2.87 2.985 5.547 5.47 7.86 8.257 2.32 2.794 3.937 6.246 6.526 8.712 1.44 1.371 4.807 2.473 6.32 1.718 9.268-4.624 19.398-8.63 25.764-17.001 3.7-4.868 6.47-7.037 12.034-4.415.32.15.764.136 1.13.076 5.921-.963 11.81-2.434 17.766-2.789 6.138-.368 11.35-3.004 16.93-4.89 2.25-.76 5.644-.47 7.628.767 5.504 3.437 11.045 3.87 17.125 2.41 3.188-.766 6.492-1.207 9.767-1.415 5.885-.373 10.297-2.496 11.922-8.663.183-.7.606-1.637 1.172-1.888 8.183-3.635 15.809-10.263 25.702-5.367 1.727.855 3.098 2.442 4.606 3.724 2.137 1.817.298 3.358-.275 5.064-.28.829-.239 2.194.272 2.732.456.482 2.145.578 2.622.13 3.518-3.3 8.087-2.6 12.219-3.285 3.637-.602 5.645-2.078 6.304-5.862 1.041-5.978 3.135-7.815 8.596-8.447 4.553-.528 7.57 2.741 6.621 7.29-1.079 5.171-4.322 8.493-9.17 10.351-.943.362-2.141.447-2.797 1.092-1.33 1.308-2.56 2.802-3.48 4.42-1.46 2.565 1.428 2.715 2.467 3.834 4.175 4.494 9.87 6.079 15.488 7.586 1.207.325 2.873-.9 4.277-1.526 2.35-1.045 4.66-2.177 6.981-3.282 1.938-.922 3.946-1.729 5.78-2.825 1.935-1.157 3.639-2.696 5.558-3.882 1.97-1.218 2.786-2.359 1.042-4.51-2.296-2.833-4.337-5.872-7.144-9.724M205.543-92.117c-1.701-.46-3.365-1.083-5.084-1.336-2.997-.443-3.859-1.748-2.812-4.692.443-1.246-.099-2.837-.193-4.271-1.89.398-4.046.378-5.58 1.34-1.033.648-1.561 2.667-1.618 4.1-.043 1.096 1.007 2.233 1.624 3.46 1.036 0 2.304-.387 2.981.078 1.536 1.054 3.542 2.346 3.913 3.885.32 1.332-.986 3.969-2.24 4.517-1.462.638-4.155.253-5.426-.774-3.75-3.03-2.873-2.514-6.192.676-2.67 2.566-7.291 4.2-11.089 4.28-6.022.124-10.404-4.558-11.872-10.552-.362-1.476-.54-3.082-1.27-4.366-1.408-2.48-2.225-4.625.983-6.317.273-.143.54-.667.5-.973-.596-4.524 1.457-9.685-3.434-13.174-2.695-1.921-3.173-4.75-2.4-7.84.184-.737.558-1.473.546-2.206-.135-7.796 3.558-11.804 11.318-13.696 3.62-.882 5.867-1.036 9.114.798 2.717 1.535 6.43 3.913 9.612-.109.276-.35 1.666-.09 2.394.22 5.636 2.394 7.235 1.878 9.792-3.321 2.11-4.29 7.197-7.065 12.008-6.548 4.684.503 9.088 4.216 10.019 8.678.797 3.826 1.41 7.692 2.012 11.554.118.757.108 1.877-.346 2.322-2.643 2.592-1.865 5.267-.454 8.012 1.895 3.69 3.495 7.592 5.866 10.953 1.082 1.534 3.669 2.695 5.64 2.803 6.009.328 10.356 3.17 13.379 7.975 3.315 5.268 3.866 10.793.47 16.444-3.946 6.568-10.08 8.938-17.148 8-4.787-.635-7.777-4.76-10.818-8.422-2.756-3.318-3.296-6.976-3.539-11.011-.096-1.598-1.273-3.35-2.42-4.616-1.754-1.937-3.817-3.638-5.934-5.188-1.047-.766-2.51-.969-3.785-1.427-.47 1.307-1.53 2.74-1.281 3.892.485 2.25 1.702 4.344 2.764 6.852M-55.372-87.536c-1.17 6.494 5.457 9.54 7.748 14.799.584 1.34 1.264 2.696 1.518 4.111.771 4.295 1.367 8.62 1.996 12.939.088.598.23 1.558-.08 1.785-4.903 3.599-3.374 9.99-6.516 14.424-1.835 2.59-2.818 5.455-6.721 5.919-1.443.171-2.605 2.22-4.007 3.266-1.858 1.387-3.697 3.476-5.769 3.785-7.332 1.091-14.836 2.748-22.111.03-2.898-1.082-5.333-3.329-8.063-4.904-11.774-6.795-14.649-17.765-13.327-29.92.442-4.062 2.368-8.33 4.695-12.362 3.343-5.786 9.082-8.477 13.267-13 .717-.776 1.99-1.483 3.006-1.485 8.613-.009 17.27-2.53 25.858 1.15 2.267.971 5.516-.287 8.506-.537M68.29-61c1.754 2.996 2.835 5.422-.44 7.657-.511.35-.471 1.471-.687 2.236.842.074 1.705.303 2.522.194 3.16-.417 6.303-.947 9.455-1.421.51-.077 1.06.003 1.543-.143 1.771-.537 4.017-2.1 5.185-1.527 2.949 1.448 5.611 3.642 8.005 5.921 2.122 2.02 1.077 5.468-1.713 6.562-1.058.414-2.242.52-3.16.72-.87 2.789-1.816 5.362-2.424 8.01-.22.964.126 2.229.628 3.138 1.044 1.886 2.572 3.53 3.53 5.449 2.147 4.298 1.23 10.385-1.815 13.59C85.684-7.209 78.638-5.069 75.038-6.4c-4.486-1.659-8.62-7.326-8.825-12.097-.251-5.856-.713-6.175-6.338-4.825-.928.222-2.237.348-2.922-.114-3.822-2.582-7.65-5.663-6.845-10.663.7-4.344 2.555-8.589 7.891-9.8 2.517-.57 3.244-2.292 2.694-4.639-.203-.865-.476-1.718-.618-2.59-.856-5.266.026-6.666 5.145-8.44.948-.328 1.828-.846 3.07-1.432M-13.81-67C-8.534-67.065-.182-56.518-.007-49.803.236-40.525-7.196-32.986-15.459-33c-10.745-.02-17.625-5.946-17.54-15.473.1-11.354 8.337-17.73 19.188-18.527M25.604-39.002c-5.793.102-12.06-4.251-11.578-12.826.355-6.303 6.9-12.283 13.738-12.17 5.8.095 11.315 6.078 11.235 12.19-.101 7.75-5.468 12.88-13.395 12.806M44.997-111.155c.137 6.115-5.076 9.738-9.199 10.125-4.687.442-8.741-4.112-8.797-9.297-.056-5.097 4.107-9.532 9.076-9.67 4.638-.129 8.837 4.034 8.92 8.842M60.372-72.001c-6.912.104-10.912-5.759-8.813-10.856 1.582-3.84 5.6-5.902 9.617-4.885 2.206.558 4.531.918 6.539 1.896 1.659.81 3.717 2.175 4.154 3.7.446 1.555-.296 4.472-1.526 5.27-3.43 2.227-7.382 3.665-9.97 4.875M129.088-137.926c3.915-.447 5.086 1.021 5.828 7.303.62 5.247-2.27 10.029-6.364 10.532-5.48.674-9.676-2.472-10.45-7.42-.905-5.792 4.309-10.76 10.986-10.415M-158-56.637c-.032-4.594 3.54-7.772 8.144-6.785 2.372.509 3.629.538 4.903-2.057.697-1.419 3.393-2.73 4.957-2.493 1.254.19 3.265 3.082 2.966 4.242-.46 1.779-2.58 4.323-4.056 4.366-3.199.093-3.747 1.591-4.338 4.183-.83 3.65-3.814 5.555-7.162 5.12-3.094-.402-5.39-3.19-5.414-6.576M57-142.279c0 4.106-3.24 7.234-7.539 7.279-4.1.042-7.546-3.388-7.46-7.429.087-4.023 3.536-7.54 7.427-7.57 4.267-.033 7.572 3.338 7.572 7.72M-65.04-136c-5.95-3.261-7.606-5.63-6.749-9.652.706-3.308 4.893-6.987 8.527-6.254 1.853.375 3.83 3.078 4.636 5.166 1.715 4.444.01 6.881-6.413 10.74M158.999-82.95c.075 3.809-3.628 6.698-8.894 6.943-3.369.157-5.95-2.449-6.099-6.156-.163-4.043 2.914-7.827 6.373-7.837 5.068-.016 8.538 2.822 8.62 7.05"/>
        <path d="M113.466-21.998c4.256.135 7.68 3.71 7.53 7.86-.143 3.886-3.857 7.072-8.32 7.138-2.704.04-5.868-4.31-5.667-7.79.206-3.557 3.56-7.301 6.457-7.208M130.952-158.761L129.921-152c-1.818-1.018-3.645-2.018-5.452-3.056-4.455-2.558-4.704-12.342-.256-14.803.742-.41 2.449.137 3.247.807 3.18 2.665 3.727 6.316 3.492 10.29M-65-107.71c.017 3.878-2.807 6.77-6.55 6.709-3.388-.056-6.34-2.863-6.447-6.131-.117-3.574 2.918-6.755 6.547-6.865 3.707-.111 6.434 2.547 6.45 6.287M268.672 29c-4.944-2.626-9.539-10.877-8.532-14.905.3-1.197 1.465-3.037 2.342-3.09 1.275-.08 3.075.903 3.908 1.94 3.828 4.764 2.329 10.222 2.282 16.055M-77.49 32.095c-1.993-.584-4.05-1.012-5.965-1.78-5.6-2.248-5.604-2.288-8.36 2.89-.166.311-.533.52-.827.795-2.71-6.56-1.322-12.193 3.78-15 .265.4.807.837.767 1.214-.621 5.895 3.43 7.544 8.005 8.868 1.112.322 2.064 1.182 3.09 1.796l-.49 1.217M-56.873 77.212c4.735-.438 9.463-1.023 14.21-1.21 1.188-.048 2.44 1.183 3.663 1.827-1.197 1.115-2.487 3.248-3.576 3.169-4.84-.355-9.62-1.344-14.424-2.103l.127-1.683M-72 106.634c-3.016 5.216-11.164 7.119-15 3.503 3.894-4.985 11.35-6.726 15-3.503M66-139.318c1.363-.996 3.077-3.134 5.21-3.584 2.764-.583 4.72 1.52 4.788 4.166.074 2.847-1.892 4.612-4.903 4.73-2.859.113-4.664-1.402-5.095-5.312M-8.558-86c2.658 4.106 1.811 11.368-1.75 15-2.927-3.482-1.872-12.518 1.75-15M21.561-24c1.362 2.25 2.693 4.52 4.096 6.745 1.044 1.658 2.222 3.23 3.258 4.894.492.789 1.24 1.82 1.057 2.526-.203.786-1.303 1.78-2.071 1.834-.613.044-1.444-1.1-1.954-1.868-1.806-2.717-3.736-5.389-5.172-8.302-.744-1.507-.547-3.485-.775-5.252L21.561-24zM283 55.854c1.211-1.503 2.12-3.648 3.34-3.843 1.102-.175 3.547 1.702 3.632 2.808.19 2.476-.622 5.064-1.283 7.537-.105.397-2.147.783-2.251.595-1.196-2.157-2.189-4.426-3.438-7.097M161 172.128c4.412-.813 7.441 2.181 11 10.872-4.486-.48-9.605-5.538-11-10.872M142-162.39c1.966-1.913 3.35-3.262 4.737-4.61 1.172 1.577 3.328 3.197 3.261 4.722-.079 1.802-2.079 3.522-3.247 5.278L142-162.39M-17 192.636L-28.938 202l-.97-.692c0-.643-.228-1.739.034-1.857 3.377-1.532 4.376-4.874 6.545-7.294.966-1.079 3.588-.813 5.459-1.157l.87 1.636M181.57 127c-2.747-1.74-5.571-3.338-8.205-5.282-1.306-.964-2.25-3.444-.047-3.678 2.435-.26 5.292.774 7.432 2.272 1.28.897 1.535 3.759 2.25 5.739l-1.43.949M121.097 165c1.293 1.945 2.571 3.899 3.88 5.833 2.281 3.366 4.666 6.669 6.803 10.123.46.743.056 2.016.05 3.044-1.038-.492-2.554-.703-3.037-1.52-2.824-4.78-5.424-9.691-8.052-14.582-.377-.702-.5-1.539-.741-2.312l1.097-.586M4.964 167L8 169.66c-2.382 2.353-4.519 4.64-6.886 6.687-.67.58-2.013.454-3.047.653.056-1.039-.31-2.396.244-3.058 2-2.389 4.307-4.543 6.653-6.942M37.52-6c3.146 1.938 4.883 4.662 4.4 8.44-.114.89-.835 1.708-1.277 2.56-.969-.526-2.577-.877-2.792-1.61C36.998.472 36.579-2.566 36-5.56L37.52-6M111-56.963c-2.091 2.084-3.532 3.756-5.258 4.956-.23.16-2.948-2.645-2.73-3.113 1.004-2.147 2.642-3.953 4.052-5.88L111-56.963M-53.118 114.772l-.882-9.913 6-.859-3.546 11-1.572-.228M239.978 165c4.81 2.62 10.134 4.58 13.022 9.676L251.995 176 239 166.232l.978-1.232M114.407 8L110 4.245c1.818-1.144 3.503-2.68 5.521-3.23.767-.21 2.297 1.846 3.479 2.87L114.407 8M57-93.372c-7.154 1.453-9.733-1.336-8.825-8.628L57-93.372M188.616 171L183 168.134c.916-1.706 1.743-3.48 2.837-5.053.18-.258 2.065.138 2.262.624.82 2.029 1.298 4.208 1.901 6.33-.461.323-.922.643-1.384.965M-139 95.534c-2.839 2.402-7.095 1.799-10-1.417 4.044-1.882 7.658-1.37 10 1.417M199.147 147c3.126 2.692 3.553 5.166 1.914 10-3.246-2.565-3.954-5.951-1.914-10M56.756-1C57.91.883 59.67 2.66 59.987 4.69 60.18 5.923 58.14 7.55 57.101 9l-1.157-.382L55-.222 56.756-1M143.32-37c1.805 2.098 3.243 3.77 4.68 5.443-1.288.902-3.084 2.89-3.774 2.51-2.381-1.315-3.11-3.778-.906-7.953M-65.247 84L-80 82.818c.031-.428.061-.857.093-1.285 4.952.552 10.067-1.933 14.907.705L-65.247 84M286.29 128c2.368.145 4.815.054 7.064.563.797.18 1.111 1.822 1.646 2.797-1.246.216-2.698.873-3.695.554-1.905-.61-3.551-1.775-5.305-2.71l.29-1.204zM30 182.766c1.29-2.45 2.482-4.972 3.947-7.292.31-.49 2.058-.646 2.372-.249.528.67.908 2.289.525 2.836-1.488 2.123-3.302 3.982-4.994 5.939L30 182.766zM118-132.683L115.033-130c-1.372-1.778-2.873-3.47-4.007-5.407-.218-.37 1.005-1.704 1.564-2.593l5.41 5.317M131-20.51c-1.581 1.242-2.893 2.68-3.266 2.494-1.721-.858-3.181-2.169-4.734-3.317 1.238-.96 2.596-2.79 3.683-2.66 1.369.162 2.516 1.927 4.317 3.483M265.762-40c1.122 1.858 2.416 3.462 2.218 3.76-1.066 1.594-2.505 2.86-3.815 4.24-.765-1.054-2.36-2.599-2.145-3.071.743-1.638 2.115-2.905 3.742-4.929M-38.962-108c-2.655-2.722-2.38-5.214-1.078-7.573.383-.695 1.378-.963 2.092-1.427.335.854 1.08 1.819.928 2.544-.461 2.202-1.269 4.311-1.942 6.456M-88-23l9 4.977c-4.628 2.496-8.723.268-9-4.977M88 3.079c2.442-2.183 3.095-5.11 6.54-3.717.884.359 1.788 2.528 1.343 3.17-1.86 2.679-4.442.95-7.883.547M-34.307-139c.893 4.123-.118 6.343-3.643 8-.279-5.482.559-7.32 3.643-8M199.58 116c1.261 2.471 2.615 3.955 2.397 4.97-.326 1.517-1.758 2.704-2.72 4.03-.807-1.212-2.248-2.418-2.257-3.64-.01-1.385 1.26-2.783 2.58-5.36M-38.225 6L-36 11.38-39.517 14c-2.302-2.564-1.964-5.146 1.292-8M103-156.308c-1.782 1.15-2.844 2.362-3.825 2.306-.83-.047-2.282-1.662-2.169-2.406.155-1.01 1.44-2.438 2.423-2.585.817-.121 1.895 1.35 3.571 2.685M-126 101.983c-2.97 2.943-4.995 2.722-9-1.04 3.374-1.152 6.273-1.693 9 1.04M252.624 172c-2.186-.867-2.964-2.886-2.491-5.54.11-.618 1.21-.981 1.855-1.46l2.012 6.199-1.376.801M295.407 28c-1.45-1.173-2.429-1.964-3.407-2.757 1.245-.793 2.425-2.03 3.758-2.23.976-.148 2.154 1.072 3.242 1.682L295.407 28M142.472 187l.528 8c-4.815-3.352-5.017-4.866-2.022-7.96l1.494-.04M-27.95 148.705L-22 148c-.216 1.391-.378 3.963-.658 3.982-1.766.113-3.558-.342-5.342-.608l.05-2.669M168.548-146l-.548-9c4.807 2.37 4.925 3.253 2.239 8.8l-1.691.2M5-135.858C3.418-134.47 2.481-133.01 1.529-133c-.897.01-2.485-1.472-2.528-2.362-.044-.89 1.342-2.45 2.293-2.624.894-.163 2.038 1.102 3.706 2.128M-32 152.12c-2.398.967-3.729 1.942-4.99 1.877-1.046-.055-2.01-1.334-3.01-2.07 1.272-.682 2.478-1.725 3.84-1.917.9-.126 2.025.969 4.16 2.11M10.88-120c-.925-1.553-2.013-2.62-1.867-3.311.22-1.036 1.31-1.806 2.03-2.689.7.875 1.914 1.718 1.956 2.636.04.895-1.115 1.87-2.118 3.364M-128.71 67l8.71.98-.181 2.02-8.819-.934.29-2.066M-37.618-76c1.234 1.26 2.798 2.377 2.601 2.75-.514.977-1.763 2.198-2.786 2.249-1.024.05-2.128-1.198-3.197-1.876L-37.618-76M-136-29l-7-2.993c4.68-1.903 6.296-1.218 7 2.993M225.431 171c1.44 2.081 2.593 3.636 3.562 5.317.1.174-.901 1.104-1.392 1.683-1.216-1.525-2.478-3.013-3.588-4.625-.122-.179.62-1.066 1.418-2.375M-40.487 82L-38 90.528l-.838.472c-.961-2.781-3.655-4.474-3.083-8.22l1.434-.78M-27.171-6c1.533.786 3.17 1.42 4.549 2.435.515.379.432 1.65.622 2.514-.748-.037-1.705.222-2.206-.166-1.368-1.057-2.543-2.387-3.794-3.609L-27.171-6M99.153-54.783c1.042 2.49 1.433 4.863-.667 6.783L97-48.283 98.027-55l1.126.217M230 101.843c-1.4 1.02-2.188 1.948-3.16 2.152-.479.1-1.975-1.36-1.83-1.723.364-.909 1.276-1.833 2.232-2.254.391-.173 1.464.934 2.758 1.825M219.87 189l-4.87-3.497 1.06-1.503 4.94 3.395c-.378.535-.754 1.07-1.13 1.605M254 64.534L252.145 66c-.742-.89-1.541-1.747-2.143-2.72-.063-.101 1.428-1.362 1.54-1.276.828.635 1.488 1.476 2.458 2.53M-71.057 20L-65 22.643c-.244.451-.486.905-.73 1.357L-72 21.73l.943-1.73zM198 131.643c-2.424.942-3.96-.043-4.98-2.197-.133-.28.435-1.415.718-1.434 2.215-.15 3.597 1.058 4.262 3.63M-52 97.268c-.98 2.395-2.436 3.308-4.476 2.368-.368-.17-.691-1.887-.428-2.18 1.438-1.61 3.077-2.171 4.904-.188M-15 173.513c-1.427 1.083-2.347 1.934-3.426 2.478-.226.114-1.034-.893-1.574-1.384.833-.891 1.583-1.896 2.56-2.587.231-.164 1.228.73 2.44 1.493M164-149.751L161.698-147c-.609-.768-1.756-1.587-1.696-2.293.083-.948 1.099-1.809 1.714-2.707l2.284 2.249M297 31.179c-2.342.403-3.82.73-5.315.82-.184.012-.895-1.563-.624-1.868 1.497-1.682 3.203-1.61 5.939 1.048M260 54.036L264.661 52c.113.706.453 1.95.3 2.035-1.367.77-2.82 1.337-4.25 1.965-.236-.655-.473-1.31-.711-1.964M276.579 139L271 137.8l.312-1.8 5.688.866-.421 2.134M215-60.99L212.292-56 211-56.882 213.47-62l1.53 1.01M-35 161h-7c2.423-5.248 4.736-2.156 6.935-1.484L-35 161M250.155 85c.97 1.557 1.877 2.373 1.844 3.163-.026.63-1.196 1.226-1.86 1.837-.759-.664-2.025-1.278-2.133-2.009-.1-.69 1.016-1.506 2.15-2.991M255.147 190L249 186.1c.32-.366.64-.734.962-1.1l6.038 4.024-.853.976M195.45 161l-.45-4.789 2.197-.211.803 4.741-2.55.259"/>
    </g>
</svg>
