<svg xmlns="http://www.w3.org/2000/svg" width="90" height="59" viewBox="0 0 90 59">
    <path fill="#FFF" fill-rule="evenodd" stroke="#FFF" d="M20.824 40.004c.547-.803 1.017-1.54 1.534-2.243.88-1.194 1.787-2.368 2.686-3.547a1.22 1.22 0 0 1 1.07-.502c1.891.111 3.781.246 5.67.373.01.079.018.157.026.235-.265.153-.534.301-.796.46-2.089 1.257-4.144 2.575-6.278 3.752-1.104.609-2.348.968-3.53 1.435-.08.031-.178.019-.382.037m64.962.9c-1.123 1.575-2.577 2.827-4.075 4.027-2.792 2.237-5.843 4.099-8.91 5.928-.63.376-1.397.546-2.118.752-1.796.514-3.247-1.197-2.672-2.982.37-1.145 1.077-2.075 1.87-2.958 1.527-1.7 3.39-2.96 5.333-4.136 1.427-.863 2.824-1.788 3.956-3.041.742-.823.944-1.728.552-2.8-.79-2.16-2.024-4.052-3.424-5.851-1.016-1.307-2.448-1.398-3.934-1.226-2.568.297-4.89 1.345-7.194 2.413-3.465 1.606-6.89 3.3-10.377 4.853-1.943.865-3.975 1.535-5.976 2.27-3.505 1.286-6.681 3.17-9.789 5.2a89.741 89.741 0 0 1-5.805 3.502c-3.74 2.058-7.732 2.529-11.928 1.768-1.98-.36-3.994-.64-6.002-.712-3.514-.126-6.102 1.46-7.704 4.6a31.745 31.745 0 0 1-1.327 2.338c-.194.311-.476.59-.772.812-.87.651-1.839.339-2.195-.688a3.577 3.577 0 0 1-.186-.808c-.057-.568-.079-1.138-.115-1.708.144-1.95.49-3.84 1.24-5.663 1.072-2.612 3.053-3.858 5.82-3.992 1.608-.077 3.217-.12 4.825-.206.292-.015.575-.175.868-.246.186-.045.384-.068.576-.065 1.857.03 3.708.034 5.536-.397 2.247-.53 4.148-1.747 6.091-2.905 2.024-1.206 4.064-2.39 6.154-3.476.993-.515 2.116-.781 3.184-1.152.28-.097.605-.136.615-.522.01-.393-.246-.59-.594-.675-.684-.166-1.368-.34-2.06-.473a58.344 58.344 0 0 0-7.607-.953c-.098-.006-.197-.007-.295-.02-1.914-.247-3.46.341-4.551 1.972-1.598 2.388-3.201 4.772-4.785 7.169-.15.226-.263.357-.558.346-.968-.036-1.944.02-2.905-.078-.658-.067-1.298-.32-1.94-.51-2.552-.752-5.09-1.545-7.385-2.926-.594-.357-1.135-.827-1.625-1.32-.474-.474-.43-.975-.003-1.49.613-.74 1.413-1.072 2.358-.935 1.508.218 3.013.457 4.509.743 2.812.537 5.012-.488 6.698-2.648 1.084-1.388 2-2.904 3.017-4.346a19.9 19.9 0 0 1 1.374-1.723c1.272-1.434 2.89-2.283 4.795-2.422 2.028-.147 4.068-.172 6.102-.178 2.408-.007 4.72.574 6.98 1.34 2.265.768 4.522.809 6.823.17 2.353-.654 4.738-1.197 7.082-1.88 1.48-.431 2.9-1.05 4.139-2.004 1.585-1.22 1.702-2.832.33-4.294-1.123-1.195-2.534-2.01-3.842-2.962-.817-.594-1.615-1.236-2.318-1.957-.933-.956-.88-1.792.051-2.733 1.209-1.22 2.748-1.82 4.382-2.19 1.567-.355 3.164-.589 4.721-.978.83-.208 1.609-.624 2.404-.96.647-.272 1.316-.513 1.92-.861 1.33-.767 2.757-1.15 4.27-1.001.707.07 1.423.363 2.065.692.625.322.75.847.517 1.513-.314.898-.898 1.638-1.732 2.056-1.283.644-2.632 1.159-3.954 1.724-1.038.443-2.094.849-3.114 1.331-.717.34-.762.623-.363 1.329.689 1.216 1.752 2.063 2.892 2.815a242.686 242.686 0 0 0 5.378 3.447c.178.11.57.084.747-.04.737-.515 1.475-1.045 2.13-1.656 2.43-2.268 5.254-2.527 8.248-1.533 1.332.442 2.342 1.429 2.898 2.765.462 1.112.01 2.037-.7 2.876-1.006 1.189-2.342 1.926-3.71 2.613-.306.153-.62.298-.945.405-.552.18-.72.495-.395.993.756 1.162 1.522 2.32 2.34 3.44 1.561 2.138 3.226 4.212 4.367 6.616.407.858.717 1.793.884 2.726.25 1.401-.36 2.619-1.157 3.736m3.11-4.466c-.284-1.66-1.014-3.144-1.918-4.522-1.307-1.993-2.728-3.911-4.102-5.86-.325-.461-.655-.92-.996-1.397l.58-.32c1.258-.686 2.436-1.474 3.399-2.552 1.845-2.065 1.916-4.603.161-6.658-1.412-1.653-3.203-2.61-5.38-2.835-2.276-.236-4.48-.006-6.442 1.251-.89.57-1.665 1.32-2.482 2.001-.205.171-.35.201-.596.043-.976-.63-1.989-1.207-2.958-1.847-.99-.653-1.945-1.358-3.02-2.114.341-.142.517-.22.697-.288 1.454-.556 2.934-1.052 4.356-1.68 1.638-.722 2.93-1.856 3.616-3.56.591-1.469.218-2.952-.985-3.873-.936-.716-2.024-1.06-3.185-1.184-1.934-.207-3.706.358-5.404 1.19-1.719.841-3.398 1.759-5.339 2.037a43.11 43.11 0 0 0-3.188.605c-1.848.41-3.554 1.133-5.033 2.343-2.063 1.686-2.317 3.984-.512 5.926.837.9 1.876 1.619 2.849 2.388 1.063.841 2.193 1.603 3.223 2.481.699.596.669.997-.122 1.451-1.045.6-2.127 1.2-3.27 1.553-2.284.707-4.636 1.196-6.932 1.868-2.19.64-4.291.479-6.421-.262-1.987-.69-4.04-1.195-6.16-1.212-2.312-.02-4.626.026-6.938.114-1.655.063-3.174.618-4.555 1.537-1.678 1.116-2.807 2.714-3.925 4.334-.953 1.383-1.89 2.788-2.975 4.066-1.014 1.195-2.43 1.539-3.985 1.265-1.47-.258-2.936-.538-4.412-.755-1.678-.247-3.157.173-4.342 1.44-1.197 1.28-1.305 2.923-.152 4.242a8.5 8.5 0 0 0 1.984 1.65c1.13.683 2.346 1.227 3.566 1.851-.117.044-.22.087-.324.121-1.932.633-3.356 1.86-4.342 3.619-1.115 1.99-1.606 4.153-1.839 6.392-.139 1.338-.157 2.674.19 3.986.723 2.732 3.628 3.606 5.733 1.723.957-.857 1.556-1.968 2.124-3.093.481-.95.999-1.869 1.816-2.59 1.435-1.265 3.165-1.553 4.975-1.38 1.925.182 3.845.449 5.752.765 4.084.677 7.969.124 11.694-1.667 2.356-1.133 4.58-2.487 6.721-3.967 3.693-2.554 7.676-4.507 11.917-5.973 3.367-1.164 6.624-2.579 9.812-4.168 2.432-1.212 4.913-2.33 7.404-3.418 1.324-.579 2.731-.93 4.201-.937.559-.003 1.026.156 1.373.62 1.14 1.52 2.164 3.104 2.907 4.862.251.593.162 1.04-.332 1.408-1.114.831-2.216 1.68-3.364 2.463-1.402.958-2.93 1.727-4.154 2.949-1.195 1.192-2.433 2.34-3.228 3.857-.588 1.12-.933 2.287-.678 3.577.31 1.578 1.482 3.004 3.378 3.34 1.24.218 2.476-.066 3.585-.631 1.251-.638 2.45-1.381 3.645-2.122 2.368-1.466 4.722-2.955 6.854-4.76 1.841-1.56 3.64-3.153 4.784-5.332a6.69 6.69 0 0 0 .693-4.36"/>
</svg>
